<svg id="Lag_1" data-name="Lag 1" xmlns="http://www.w3.org/2000/svg" viewBox="0 0 500 185.41"><defs><style>.cls-1{font-size:104.99px;font-family:Helvetica-Heavy;font-weight:800;}.cls-1,.cls-2{fill:#7ae645;}.cls-3{fill:#7dff31;}</style></defs><text class="cls-1" transform="translate(68.49 159.06)">INSPIRE</text><path class="cls-2" d="M148.7.55a63.16,63.16,0,0,0-63,61.12h0v2h0V76.07a63.1,63.1,0,0,0-52.72-28.5H0v5.48a63.15,63.15,0,0,0,63.08,63.08H85.63v43.48h11V69.11h21.94A63.14,63.14,0,0,0,181.61,6V.55ZM44.91,86.38l27.71,18.78H63.08A52.19,52.19,0,0,1,11.25,58.54H32.91A52.17,52.17,0,0,1,83.79,99.48L51.07,77.31a5.48,5.48,0,0,0-6.16,9.07Zm73.63-28.24H109L136.7,39.37a5.48,5.48,0,1,0-6.16-9.07L97.82,52.47A52.18,52.18,0,0,1,148.7,11.52h21.66A52.19,52.19,0,0,1,118.54,58.14Z" transform="translate(0 -0.55)"/><path class="cls-3" d="M170.36,11.52a52.19,52.19,0,0,1-51.82,46.62H109L136.7,39.37a5.48,5.48,0,1,0-6.16-9.07L97.82,52.47A52.18,52.18,0,0,1,148.7,11.52Z" transform="translate(0 -0.55)"/><path class="cls-3" d="M44.91,86.38l27.71,18.78H63.08A52.19,52.19,0,0,1,11.25,58.54H32.91A52.17,52.17,0,0,1,83.79,99.48L51.07,77.31a5.48,5.48,0,0,0-6.16,9.07Z" transform="translate(0 -0.55)"/></svg>